C:\Users\israe\Dropbox\PhDWork\ExperimentalData\subject7\055\P7S055W04_filtered35.mot
nRows=20
nColumns=28

name C:\Users\israe\Dropbox\PhDWork\ExperimentalData\subject7\055\P7S055W04_filtered35.mot
datacolumns 28
datarows 20
range 2.8500000000 2.8690000000
endheader
time	ground_force_1_vx	ground_force_1_vy	ground_force_1_vz	ground_force_1_px	ground_force_1_py	ground_force_1_pz	ground_moment_1_mx	ground_moment_1_my	ground_moment_1_mz	ground_force_2_vx	ground_force_2_vy	ground_force_2_vz	ground_force_2_px	ground_force_2_py	ground_force_2_pz	ground_moment_2_mx	ground_moment_2_my	ground_moment_2_mz	ground_force_3_vx	ground_force_3_vy	ground_force_3_vz	ground_force_3_px	ground_force_3_py	ground_force_3_pz	ground_moment_3_mx	ground_moment_3_my	ground_moment_3_mz
        2.8500000000	        0.0794112204	        0.0000000000	       -0.0154592742	        0.1988394961	        0.0000558755	       -0.3004071324	        0.0116878186	        0.0005623076	        0.0068422913	        0.0000000000	        0.0000000000	        0.0000000000	        0.2029003516	       -0.0000795827	        0.4543649445	        0.0000000000	        0.0000000000	        0.0000000000	        0.0000000000	        0.0000000000	        0.0000000000	        0.2076431971	        0.0000770316	        1.3583900146	       -0.0000000000	       -0.0000000000	        0.0000000000	
        2.8510000000	        0.0559631928	        0.0000000000	       -0.0105162789	        0.1988394961	        0.0000558755	       -0.3004071324	        0.0082309120	        0.0003715491	        0.0047664474	        0.0000000000	        0.0000000000	        0.0000000000	        0.2029003516	       -0.0000795827	        0.4543649445	        0.0000000000	        0.0000000000	        0.0000000000	        0.0000000000	        0.0000000000	        0.0000000000	        0.2076431971	        0.0000770316	        1.3583900146	       -0.0000000000	       -0.0000000000	        0.0000000000	
        2.8520000000	        0.0365420121	        0.0000000000	       -0.0065024642	        0.1988394961	        0.0000558755	       -0.3004071324	        0.0053689091	        0.0002187986	        0.0030588785	        0.0000000000	        0.0000000000	        0.0000000000	        0.2029003516	       -0.0000795827	        0.4543649445	        0.0000000000	        0.0000000000	        0.0000000000	        0.0000000000	        0.0000000000	        0.0000000000	        0.2076431971	        0.0000770316	        1.3583900146	       -0.0000000000	       -0.0000000000	        0.0000000000	
        2.8530000000	        0.0210709986	        0.0000000000	       -0.0033708323	        0.1988394961	        0.0000558755	       -0.3004071324	        0.0030900322	        0.0001014169	        0.0017082726	        0.0000000000	        0.0000000000	        0.0000000000	        0.2029003516	       -0.0000795827	        0.4543649445	        0.0000000000	        0.0000000000	        0.0000000000	        0.0000000000	        0.0000000000	        0.0000000000	        0.2076431971	        0.0000770316	        1.3583900146	       -0.0000000000	       -0.0000000000	        0.0000000000	
        2.8540000000	        0.0092505317	        0.0000000000	       -0.0010341952	        0.1988394961	        0.0000558755	       -0.3004071324	        0.0013497400	        0.0000153962	        0.0006845798	        0.0000000000	        0.0000000000	        0.0000000000	        0.2029003516	       -0.0000795827	        0.4543649445	        0.0000000000	        0.0000000000	        0.0000000000	        0.0000000000	        0.0000000000	        0.0000000000	        0.2076431971	        0.0000770316	        1.3583900146	       -0.0000000000	       -0.0000000000	        0.0000000000	
        2.8550000000	        0.0006484648	        0.0000000000	        0.0006164463	        0.1988394961	        0.0000558755	       -0.3004071324	        0.0000840471	       -0.0000439491	       -0.0000530839	        0.0000000000	        0.0000000000	        0.0000000000	        0.2029003516	       -0.0000795827	        0.4543649445	        0.0000000000	        0.0000000000	        0.0000000000	        0.0000000000	        0.0000000000	        0.0000000000	        0.2076431971	        0.0000770316	        1.3583900146	       -0.0000000000	       -0.0000000000	        0.0000000000	
        2.8560000000	       -0.0052302059	        0.0211569427	        0.0016980630	        0.1988394961	        0.0000558755	       -0.3004071324	       -0.0007802176	       -0.0000814708	       -0.0005503924	        0.0000000000	        0.0000000000	        0.0000000000	        0.2029003516	       -0.0000795827	        0.4543649445	        0.0000000000	        0.0000000000	        0.0000000000	        0.0000000000	        0.0000000000	        0.0000000000	        0.2076431971	        0.0000770316	        1.3583900146	       -0.0000000000	       -0.0000000000	        0.0000000000	
        2.8570000000	       -0.0088921190	        0.0349396063	        0.0023257043	        0.1988394961	        0.0000558755	       -0.3004071324	       -0.0013178737	       -0.0001018297	       -0.0008534081	        0.0000000000	        0.0000000000	        0.0000000000	        0.2029003516	       -0.0000795827	        0.4543649445	        0.0000000000	        0.0000000000	       -0.0000000000	       -0.0000000000	        0.0000000000	       -0.0000000000	        0.2076431971	        0.0000770316	        1.3583900146	        0.0000000000	        0.0000000000	       -0.0000000000	
        2.8580000000	       -0.0108200560	        0.0421037204	        0.0026059049	        0.1988394961	        0.0000558755	       -0.3004071324	       -0.0016001700	       -0.0001092646	       -0.0010055700	       -0.0000000000	        0.0000000000	        0.0000000000	        0.2029003516	       -0.0000795827	        0.4543649445	       -0.0000000000	       -0.0000000000	       -0.0000000000	       -0.0000000000	        0.0000000000	       -0.0000000000	        0.2076431971	        0.0000770316	        1.3583900146	        0.0000000000	        0.0000000000	       -0.0000000000	
        2.8590000000	       -0.0114503476	        0.0443269589	        0.0026327436	        0.1988394961	        0.0000558755	       -0.3004071324	       -0.0016914661	       -0.0001074622	       -0.0010458140	       -0.0000000000	        0.0000000000	       -0.0000000000	        0.2029003516	       -0.0000795827	        0.4543649445	       -0.0000000000	       -0.0000000000	       -0.0000000000	       -0.0000000000	        0.0000000000	       -0.0000000000	        0.2076431971	        0.0000770316	        1.3583900146	        0.0000000000	        0.0000000000	       -0.0000000000	
        2.8600000000	       -0.0111604529	        0.0430575939	        0.0024859491	        0.1988394961	        0.0000558755	       -0.3004071324	       -0.0016474128	       -0.0000995037	       -0.0010075794	       -0.0000000000	        0.0000000000	       -0.0000000000	        0.2029003516	       -0.0000795827	        0.4543649445	       -0.0000000000	       -0.0000000000	       -0.0000000000	       -0.0000000000	        0.0000000000	       -0.0000000000	        0.2076431971	        0.0000770316	        1.3583900146	        0.0000000000	        0.0000000000	       -0.0000000000	
        2.8610000000	       -0.0102642179	        0.0394974368	        0.0022305143	        0.1988394961	        0.0000558755	       -0.3004071324	       -0.0015142620	       -0.0000878660	       -0.0009184797	       -0.0000000000	        0.0000000000	       -0.0000000000	        0.2029003516	       -0.0000795827	        0.4543649445	       -0.0000000000	       -0.0000000000	       -0.0000000000	       -0.0000000000	        0.0000000000	       -0.0000000000	        0.2076431971	        0.0000770316	        1.3583900146	        0.0000000000	        0.0000000000	       -0.0000000000	
        2.8620000000	       -0.0090126457	        0.0346057065	        0.0019173573	        0.1988394961	        0.0000558755	       -0.3004071324	       -0.0013289880	       -0.0000744607	       -0.0008004433	       -0.0000000000	        0.0000000000	       -0.0000000000	        0.2029003516	       -0.0000795827	        0.4543649445	       -0.0000000000	       -0.0000000000	       -0.0000000000	       -0.0000000000	        0.0000000000	       -0.0000000000	        0.2076431971	        0.0000770316	        1.3583900146	        0.0000000000	        0.0000000000	       -0.0000000000	
        2.8630000000	       -0.0075983576	        0.0291168607	        0.0015846528	        0.1988394961	        0.0000558755	       -0.3004071324	       -0.0011199514	       -0.0000606959	       -0.0006701663	       -0.0000000000	        0.0000000000	       -0.0000000000	        0.2029003516	       -0.0000795827	        0.4543649445	       -0.0000000000	       -0.0000000000	       -0.0000000000	       -0.0000000000	        0.0000000000	       -0.0000000000	        0.2076431971	        0.0000770316	        1.3583900146	        0.0000000000	        0.0000000000	       -0.0000000000	
        2.8640000000	       -0.0061622794	        0.0235667839	        0.0012595345	        0.1988394961	        0.0000558755	       -0.3004071324	       -0.0009078891	       -0.0000475499	       -0.0005397470	       -0.0000000000	        0.0000000000	       -0.0000000000	        0.2029003516	       -0.0000795827	        0.4543649445	       -0.0000000000	       -0.0000000000	       -0.0000000000	       -0.0000000000	        0.0000000000	       -0.0000000000	        0.2076431971	        0.0000770316	        1.3583900146	        0.0000000000	        0.0000000000	       -0.0000000000	
        2.8650000000	       -0.0048014200	        0.0183230063	        0.0009599418	        0.1988394961	        0.0000558755	       -0.3004071324	       -0.0007070647	       -0.0000356478	       -0.0004174054	       -0.0000000000	        0.0000000000	       -0.0000000000	        0.2029003516	       -0.0000795827	        0.4543649445	       -0.0000000000	       -0.0000000000	       -0.0000000000	       -0.0000000000	        0.0000000000	       -0.0000000000	        0.2076431971	        0.0000770316	        1.3583900146	        0.0000000000	        0.0000000000	       -0.0000000000	
        2.8660000000	       -0.0035769030	        0.0136157648	        0.0006964500	        0.1988394961	        0.0000558755	       -0.3004071324	       -0.0005264538	       -0.0000253358	       -0.0003082137	       -0.0000000000	        0.0000000000	       -0.0000000000	        0.2029003516	       -0.0000795827	        0.4543649445	       -0.0000000000	       -0.0000000000	       -0.0000000000	       -0.0000000000	        0.0000000000	       -0.0000000000	        0.2076431971	        0.0000770316	        1.3583900146	        0.0000000000	        0.0000000000	       -0.0000000000	
        2.8670000000	       -0.0025216659	        0.0095676883	        0.0004739735	        0.1988394961	        0.0000558755	       -0.3004071324	       -0.0003708815	       -0.0000167494	       -0.0002147902	       -0.0000000000	        0.0000000000	       -0.0000000000	        0.2029003516	       -0.0000795827	        0.4543649445	       -0.0000000000	       -0.0000000000	       -0.0000000000	       -0.0000000000	        0.0000000000	       -0.0000000000	        0.2076431971	        0.0000770316	        1.3583900146	        0.0000000000	        0.0000000000	       -0.0000000000	
        2.8680000000	       -0.0016474530	        0.0062206883	        0.0002932771	        0.1988394961	        0.0000558755	       -0.3004071324	       -0.0002420527	       -0.0000098722	       -0.0001379237	       -0.0000000000	        0.0000000000	       -0.0000000000	        0.2029003516	       -0.0000795827	        0.4543649445	       -0.0000000000	       -0.0000000000	       -0.0000000000	       -0.0000000000	        0.0000000000	       -0.0000000000	        0.2076431971	        0.0000770316	        1.3583900146	        0.0000000000	        0.0000000000	       -0.0000000000	
        2.8690000000	       -0.0009508892	        0.0035592689	        0.0001522612	        0.1988394961	        0.0000558755	       -0.3004071324	       -0.0001394488	       -0.0000045861	       -0.0000771116	       -0.0000000000	        0.0000000000	       -0.0000000000	        0.2029003516	       -0.0000795827	        0.4543649445	       -0.0000000000	       -0.0000000000	       -0.0000000000	       -0.0000000000	        0.0000000000	       -0.0000000000	        0.2076431971	        0.0000770316	        1.3583900146	        0.0000000000	        0.0000000000	       -0.0000000000	
